<mxfile host="app.diagrams.net" modified="2022-12-13T15:52:18.277Z" agent="5.0 (Windows NT 10.0; Win64; x64) AppleWebKit/537.36 (KHTML, like Gecko) Chrome/108.0.0.0 Safari/537.36" etag="7vog_KwOWJBp2HJ3P1ED" version="20.6.2" type="github" pages="2">
  <diagram id="kgpKYQtTHZ0yAKxKKP6v" name="Bill Structure">
    <mxGraphModel dx="1955" dy="939" grid="1" gridSize="10" guides="1" tooltips="1" connect="1" arrows="1" fold="1" page="1" pageScale="1" pageWidth="850" pageHeight="1100" math="0" shadow="0">
      <root>
        <mxCell id="0" />
        <mxCell id="1" parent="0" />
        <mxCell id="_3w4ap84SFWJ1xlpfxd1-3" value="BanID" style="rounded=0;whiteSpace=wrap;html=1;" parent="1" vertex="1">
          <mxGeometry x="365" y="80" width="120" height="60" as="geometry" />
        </mxCell>
        <mxCell id="_3w4ap84SFWJ1xlpfxd1-4" value="Timestamp" style="ellipse;whiteSpace=wrap;html=1;" parent="1" vertex="1">
          <mxGeometry x="365" y="180" width="120" height="80" as="geometry" />
        </mxCell>
        <mxCell id="_3w4ap84SFWJ1xlpfxd1-12" style="edgeStyle=orthogonalEdgeStyle;rounded=0;orthogonalLoop=1;jettySize=auto;html=1;exitX=0.5;exitY=1;exitDx=0;exitDy=0;" parent="1" source="_3w4ap84SFWJ1xlpfxd1-5" edge="1">
          <mxGeometry relative="1" as="geometry">
            <mxPoint x="425" y="360" as="targetPoint" />
          </mxGeometry>
        </mxCell>
        <mxCell id="_3w4ap84SFWJ1xlpfxd1-23" style="edgeStyle=orthogonalEdgeStyle;rounded=0;orthogonalLoop=1;jettySize=auto;html=1;" parent="1" source="_3w4ap84SFWJ1xlpfxd1-5" edge="1">
          <mxGeometry relative="1" as="geometry">
            <mxPoint x="640" y="340" as="targetPoint" />
          </mxGeometry>
        </mxCell>
        <mxCell id="_3w4ap84SFWJ1xlpfxd1-5" value="Authority Hash" style="shape=hexagon;perimeter=hexagonPerimeter2;whiteSpace=wrap;html=1;fixedSize=1;" parent="1" vertex="1">
          <mxGeometry x="365" y="300" width="120" height="80" as="geometry" />
        </mxCell>
        <mxCell id="4Qjaf6-6eZSUh4uF0OUK-2" style="edgeStyle=orthogonalEdgeStyle;rounded=0;orthogonalLoop=1;jettySize=auto;html=1;" edge="1" parent="1" source="_3w4ap84SFWJ1xlpfxd1-6">
          <mxGeometry relative="1" as="geometry">
            <mxPoint x="640" y="475" as="targetPoint" />
          </mxGeometry>
        </mxCell>
        <mxCell id="_3w4ap84SFWJ1xlpfxd1-6" value="Data&lt;br&gt;(Difficulty of the Bill)" style="shape=cylinder3;whiteSpace=wrap;html=1;boundedLbl=1;backgroundOutline=1;size=15;" parent="1" vertex="1">
          <mxGeometry x="360" y="420" width="130" height="110" as="geometry" />
        </mxCell>
        <mxCell id="_3w4ap84SFWJ1xlpfxd1-25" style="edgeStyle=orthogonalEdgeStyle;rounded=0;orthogonalLoop=1;jettySize=auto;html=1;exitX=1;exitY=0.5;exitDx=0;exitDy=0;" parent="1" source="_3w4ap84SFWJ1xlpfxd1-14" edge="1">
          <mxGeometry relative="1" as="geometry">
            <mxPoint x="640" y="625" as="targetPoint" />
          </mxGeometry>
        </mxCell>
        <mxCell id="_3w4ap84SFWJ1xlpfxd1-28" style="edgeStyle=orthogonalEdgeStyle;rounded=0;orthogonalLoop=1;jettySize=auto;html=1;" parent="1" source="_3w4ap84SFWJ1xlpfxd1-14" edge="1">
          <mxGeometry relative="1" as="geometry">
            <mxPoint x="180" y="625" as="targetPoint" />
          </mxGeometry>
        </mxCell>
        <mxCell id="_3w4ap84SFWJ1xlpfxd1-14" value="Signature" style="whiteSpace=wrap;html=1;aspect=fixed;" parent="1" vertex="1">
          <mxGeometry x="370" y="570" width="110" height="110" as="geometry" />
        </mxCell>
        <mxCell id="_3w4ap84SFWJ1xlpfxd1-15" value="Master Data" style="shape=step;perimeter=stepPerimeter;whiteSpace=wrap;html=1;fixedSize=1;size=15;" parent="1" vertex="1">
          <mxGeometry x="338" y="810" width="175" height="80" as="geometry" />
        </mxCell>
        <mxCell id="_3w4ap84SFWJ1xlpfxd1-19" value="" style="shape=flexArrow;endArrow=classic;html=1;rounded=0;entryX=1;entryY=0.5;entryDx=0;entryDy=0;exitX=1;exitY=0.5;exitDx=0;exitDy=0;" parent="1" source="_3w4ap84SFWJ1xlpfxd1-15" target="_3w4ap84SFWJ1xlpfxd1-3" edge="1">
          <mxGeometry width="50" height="50" relative="1" as="geometry">
            <mxPoint x="640" y="760" as="sourcePoint" />
            <mxPoint x="470" y="400" as="targetPoint" />
            <Array as="points">
              <mxPoint x="650" y="850" />
              <mxPoint x="650" y="110" />
            </Array>
          </mxGeometry>
        </mxCell>
        <mxCell id="_3w4ap84SFWJ1xlpfxd1-21" value="" style="endArrow=classic;html=1;rounded=0;exitX=1;exitY=0.5;exitDx=0;exitDy=0;" parent="1" source="_3w4ap84SFWJ1xlpfxd1-4" edge="1">
          <mxGeometry width="50" height="50" relative="1" as="geometry">
            <mxPoint x="420" y="450" as="sourcePoint" />
            <mxPoint x="640" y="220" as="targetPoint" />
          </mxGeometry>
        </mxCell>
        <mxCell id="_3w4ap84SFWJ1xlpfxd1-26" value="&lt;font style=&quot;font-size: 40px;&quot;&gt;&lt;u&gt;Bill Structure&lt;/u&gt;&lt;/font&gt;" style="text;html=1;strokeColor=none;fillColor=none;align=center;verticalAlign=middle;whiteSpace=wrap;rounded=0;" parent="1" vertex="1">
          <mxGeometry x="10" y="30" width="310" height="40" as="geometry" />
        </mxCell>
        <mxCell id="_3w4ap84SFWJ1xlpfxd1-29" value="Printing" style="shape=process;whiteSpace=wrap;html=1;backgroundOutline=1;" parent="1" vertex="1">
          <mxGeometry x="60" y="595" width="120" height="60" as="geometry" />
        </mxCell>
        <mxCell id="_3w4ap84SFWJ1xlpfxd1-32" value="" style="shape=flexArrow;endArrow=classic;html=1;rounded=0;exitX=0.5;exitY=0;exitDx=0;exitDy=0;entryX=0;entryY=0.5;entryDx=0;entryDy=0;" parent="1" source="_3w4ap84SFWJ1xlpfxd1-29" target="_3w4ap84SFWJ1xlpfxd1-5" edge="1">
          <mxGeometry width="50" height="50" relative="1" as="geometry">
            <mxPoint x="420" y="450" as="sourcePoint" />
            <mxPoint x="470" y="400" as="targetPoint" />
            <Array as="points">
              <mxPoint x="120" y="340" />
            </Array>
          </mxGeometry>
        </mxCell>
        <mxCell id="_3w4ap84SFWJ1xlpfxd1-34" value="" style="shape=flexArrow;endArrow=classic;html=1;rounded=0;fontSize=40;exitX=0.5;exitY=1;exitDx=0;exitDy=0;exitPerimeter=0;entryX=0.5;entryY=0;entryDx=0;entryDy=0;" parent="1" source="_3w4ap84SFWJ1xlpfxd1-6" target="_3w4ap84SFWJ1xlpfxd1-14" edge="1">
          <mxGeometry width="50" height="50" relative="1" as="geometry">
            <mxPoint x="420" y="640" as="sourcePoint" />
            <mxPoint x="470" y="590" as="targetPoint" />
          </mxGeometry>
        </mxCell>
        <mxCell id="_3w4ap84SFWJ1xlpfxd1-36" value="Printer Address" style="shape=parallelogram;perimeter=parallelogramPerimeter;whiteSpace=wrap;html=1;fixedSize=1;fontSize=12;" parent="1" vertex="1">
          <mxGeometry x="335" y="710" width="180" height="60" as="geometry" />
        </mxCell>
        <mxCell id="_3w4ap84SFWJ1xlpfxd1-39" value="" style="endArrow=classic;html=1;rounded=0;fontSize=12;entryX=0.75;entryY=0;entryDx=0;entryDy=0;exitX=0;exitY=0.5;exitDx=0;exitDy=0;exitPerimeter=0;" parent="1" source="_3w4ap84SFWJ1xlpfxd1-6" target="_3w4ap84SFWJ1xlpfxd1-29" edge="1">
          <mxGeometry width="50" height="50" relative="1" as="geometry">
            <mxPoint x="250" y="550" as="sourcePoint" />
            <mxPoint x="300" y="500" as="targetPoint" />
            <Array as="points">
              <mxPoint x="240" y="475" />
            </Array>
          </mxGeometry>
        </mxCell>
        <mxCell id="_3w4ap84SFWJ1xlpfxd1-40" value="" style="endArrow=classic;html=1;rounded=0;fontSize=12;entryX=0.75;entryY=1;entryDx=0;entryDy=0;exitX=0;exitY=0.5;exitDx=0;exitDy=0;" parent="1" source="_3w4ap84SFWJ1xlpfxd1-36" target="_3w4ap84SFWJ1xlpfxd1-29" edge="1">
          <mxGeometry width="50" height="50" relative="1" as="geometry">
            <mxPoint x="220" y="780" as="sourcePoint" />
            <mxPoint x="270" y="730" as="targetPoint" />
            <Array as="points">
              <mxPoint x="240" y="740" />
            </Array>
          </mxGeometry>
        </mxCell>
      </root>
    </mxGraphModel>
  </diagram>
  <diagram id="oN5AjTLJ1eSLctBdzaS6" name="Transaction Structure">
    <mxGraphModel dx="1662" dy="798" grid="1" gridSize="10" guides="1" tooltips="1" connect="1" arrows="1" fold="1" page="1" pageScale="1" pageWidth="827" pageHeight="1169" math="0" shadow="0">
      <root>
        <mxCell id="0" />
        <mxCell id="1" parent="0" />
      </root>
    </mxGraphModel>
  </diagram>
</mxfile>
